<svg width="64" height="64" viewBox="0 0 64 64" fill="none" xmlns="http://www.w3.org/2000/svg">
  <rect width="64" height="64" rx="20" fill="url(#paint0_linear)"/>
  <path d="M20 42V18H33.6C40.144 18 44.2 21.264 44.2 26.592C44.2 30.336 42.184 32.832 38.656 33.856C42.856 34.72 45.2 37.472 45.2 41.76C45.2 47.536 40.848 51 33.824 51H20V42ZM27.136 31.52H31.632C34.448 31.52 36.272 30.08 36.272 27.52C36.272 25.088 34.448 23.68 31.632 23.68H27.136V31.52ZM27.136 44.232H32.224C35.52 44.232 37.504 42.76 37.504 39.944C37.504 37.16 35.52 35.624 32.224 35.624H27.136V44.232Z" fill="white"/>
  <defs>
    <linearGradient id="paint0_linear" x1="4" y1="4" x2="60" y2="60" gradientUnits="userSpaceOnUse">
      <stop stop-color="#FF82B8"/>
      <stop offset="1" stop-color="#B71D69"/>
    </linearGradient>
  </defs>
</svg>
